<svg width="40" height="33" viewBox="0 0 40 33" fill="none" xmlns="http://www.w3.org/2000/svg">
<path d="M14.2462 14.1843L14.2402 14.1893L11.4667 16.5003L14.2352 18.8071C14.5746 19.0868 14.8581 19.4279 15.071 19.8125L20.7101 4.30492C20.7102 4.30473 20.7103 4.30453 20.7103 4.30434C20.8673 3.87247 21.1078 3.47573 21.4181 3.13678C21.7285 2.79767 22.1027 2.52304 22.5192 2.32857C22.9358 2.1341 23.3866 2.0236 23.8459 2.00339C24.3049 1.98318 24.7635 2.05357 25.1953 2.21052L14.2462 14.1843ZM14.2462 14.1843L14.2522 14.1793C14.957 13.5826 15.3974 12.7316 15.4775 11.8117C15.5576 10.8918 15.271 9.97744 14.68 9.26793C14.089 8.55841 13.2415 8.11121 12.3223 8.02374C11.403 7.93626 10.4864 8.21561 9.77221 8.80092L9.76586 8.80613L9.75956 8.81138L3.75983 13.8112C3.75974 13.8112 3.75965 13.8113 3.75956 13.8114C3.36538 14.1398 3.04823 14.5509 2.83057 15.0155C2.61285 15.4802 2.5 15.9871 2.5 16.5003C2.5 17.0135 2.61285 17.5204 2.83057 17.9851C3.04823 18.4498 3.36538 18.8608 3.75956 19.1893C3.75965 19.1893 3.75974 19.1894 3.75983 19.1895L9.75467 24.1852C10.1057 24.4808 10.5114 24.7044 10.9487 24.8435C11.389 24.9835 11.8526 25.0349 12.3128 24.9948C12.6402 24.9663 12.9613 24.8919 13.2667 24.7743L12.7103 26.3043L12.7098 26.3058C12.3934 27.178 12.4363 28.1401 12.8289 28.9807C13.2209 29.8198 13.9294 30.4692 14.7991 30.7869M14.2462 14.1843L14.7991 30.7869M14.7991 30.7869C15.184 30.9284 15.591 31.0007 16.0011 31.0003M14.7991 30.7869L27.2895 6.69636L26.7331 8.22639C27.0386 8.10878 27.3596 8.03436 27.687 8.00585C28.1473 7.96577 28.6109 8.01719 29.0512 8.15716C29.4884 8.29617 29.894 8.51978 30.2449 8.81524L36.24 13.8112C36.2401 13.8112 36.2402 13.8113 36.2403 13.8114C36.6345 14.1398 36.9516 14.5509 37.1693 15.0155C37.387 15.4802 37.4999 15.9871 37.4999 16.5003C37.4999 17.0135 37.387 17.5204 37.1693 17.9851C36.9516 18.4498 36.6345 18.8608 36.2403 19.1893C36.2402 19.1893 36.2401 19.1894 36.24 19.1895L30.2451 24.1853C29.8941 24.4808 29.4885 24.7045 29.0512 24.8435C28.6109 24.9835 28.1473 25.0349 27.687 24.9948C27.2268 24.9547 26.779 24.8239 26.3696 24.6099C25.9602 24.396 25.5971 24.103 25.3015 23.7481C25.0058 23.3931 24.7833 22.9831 24.6469 22.5417C24.5104 22.1004 24.4627 21.6363 24.5065 21.1764C24.5502 20.7166 24.6846 20.2699 24.9018 19.8621C25.1176 19.4573 25.4107 19.0988 25.7647 18.8071L28.5331 16.5003L25.7647 14.1935C25.4253 13.9138 25.1418 13.5727 24.9288 13.1882L19.2896 28.6962C19.2895 28.6962 19.2895 28.6963 19.2895 28.6963C19.044 29.3716 18.5965 29.955 18.008 30.3672C17.4198 30.7791 16.7192 31.0001 16.0011 31.0003M16.0011 31.0003C16.0006 31.0003 16.0001 31.0003 15.9996 31.0003L15.9999 29.0003L16.0026 31.0003C16.0021 31.0003 16.0016 31.0003 16.0011 31.0003ZM27.4969 5.34627C27.5171 5.80554 27.4466 6.26429 27.2895 6.69631L27.4969 5.34627ZM27.4969 5.34627C27.4766 4.88698 27.3661 4.43618 27.1717 4.01962M27.4969 5.34627L27.1717 4.01962M27.1717 4.01962C26.9772 3.60306 26.7026 3.22888 26.3635 2.91847M27.1717 4.01962L26.3635 2.91847M26.3635 2.91847C26.0245 2.60821 25.6278 2.36773 25.196 2.21075L26.3635 2.91847Z" fill="#82BC4F" stroke="#16181D" stroke-width="4"/>
</svg>
